HIERARCHY
ROOT Hips
{
 OFFSET 0.000000 0.000000 0.000000
 CHANNELS 6 Xposition Yposition Zposition Yrotation Xrotation Zrotation
 JOINT Chest
 {
  OFFSET 0.000000 9.585900 0.002600
  CHANNELS 3 Yrotation Xrotation Zrotation
  JOINT Chest2
  {
   OFFSET 0.000000 9.601200 -0.005300
   CHANNELS 3 Yrotation Xrotation Zrotation
   JOINT Chest3
   {
    OFFSET 0.000000 9.561800 0.000000
    CHANNELS 3 Yrotation Xrotation Zrotation
    JOINT Chest4
    {
     OFFSET 0.000000 9.552100 0.000000
     CHANNELS 3 Yrotation Xrotation Zrotation
     JOINT Neck
     {
      OFFSET 0.000000 14.453000 0.000000
      CHANNELS 3 Yrotation Xrotation Zrotation
      JOINT Head
      {
       OFFSET 0.000000 8.936500 -0.011300
       CHANNELS 3 Yrotation Xrotation Zrotation
       End Site
       {
        OFFSET 0.000000 17.073600 -0.006000
       }
      }
     }
     JOINT RightCollar
     {
      OFFSET -2.921100 9.558500 0.000000
      CHANNELS 3 Yrotation Xrotation Zrotation
      JOINT RightShoulder
      {
       OFFSET -13.519700 0.000000 0.000000
       CHANNELS 3 Yrotation Xrotation Zrotation
       JOINT RightElbow
       {
        OFFSET 0.000000 -29.696600 0.000000
        CHANNELS 3 Yrotation Xrotation Zrotation
        JOINT RightWrist
        {
         OFFSET 0.000000 -24.004700 0.000000
         CHANNELS 3 Yrotation Xrotation Zrotation
         End Site
         {
          OFFSET 0.000000 -17.728500 0.000000
         }
        }
       }
      }
     }
     JOINT LeftCollar
     {
      OFFSET 2.921100 9.558500 0.000000
      CHANNELS 3 Yrotation Xrotation Zrotation
      JOINT LeftShoulder
      {
       OFFSET 13.519700 0.000000 0.000000
       CHANNELS 3 Yrotation Xrotation Zrotation
       JOINT LeftElbow
       {
        OFFSET 0.000000 -29.696600 0.000000
        CHANNELS 3 Yrotation Xrotation Zrotation
        JOINT LeftWrist
        {
         OFFSET 0.000000 -24.004700 0.000000
         CHANNELS 3 Yrotation Xrotation Zrotation
         End Site
         {
          OFFSET 0.000000 -17.728500 0.000000
         }
        }
       }
      }
     }
    }
   }
  }
 }
 JOINT RightHip
 {
  OFFSET -7.771700 -0.012900 -0.001300
  CHANNELS 3 Yrotation Xrotation Zrotation
  JOINT RightKnee
  {
   OFFSET 0.000000 -40.869800 0.001200
   CHANNELS 3 Yrotation Xrotation Zrotation
   JOINT RightAnkle
   {
    OFFSET 0.000000 -39.717900 0.002100
    CHANNELS 3 Yrotation Xrotation Zrotation
    JOINT RightToe
    {
     OFFSET 0.000000 -4.965400 11.033500
     CHANNELS 3 Yrotation Xrotation Zrotation
     End Site
     {
      OFFSET 0.000000 -1.423100 5.872300
     }
    }
   }
  }
 }
 JOINT LeftHip
 {
  OFFSET 7.771700 -0.012900 -0.001300
  CHANNELS 3 Yrotation Xrotation Zrotation
  JOINT LeftKnee
  {
   OFFSET 0.000000 -40.869800 0.001200
   CHANNELS 3 Yrotation Xrotation Zrotation
   JOINT LeftAnkle
   {
    OFFSET 0.000000 -39.717900 0.002100
    CHANNELS 3 Yrotation Xrotation Zrotation
    JOINT LeftToe
    {
     OFFSET 0.000000 -4.965400 11.033500
     CHANNELS 3 Yrotation Xrotation Zrotation
     End Site
     {
      OFFSET 0.000000 -1.423100 5.872300
     }
    }
   }
  }
 }
}
MOTION
Frames: 8
Frame Time: 0.008333
0.000000 85.388000 0.000000 0.000000 -5.767877 0.000000 0.000000 11.653817 0.000000 0.000000 -5.885947 0.000000 0.000000 -0.000000 0.000000 0.000000 -0.000000 0.000000 0.000000 12.528835 0.000000 0.000000 0.711642 0.000000 0.000000 -0.000000 0.000000 0.000000 0.000000 -90.000000 0.000000 -2.309062 0.000000 0.000000 2.309062 0.000000 0.000000 -0.000000 0.000000 0.000000 -0.000000 90.000000 0.000000 -2.309062 0.000000 0.000000 2.309062 0.000000 0.000000 8.520406 0.000000 0.000000 1.905762 0.000000 -0.000000 -4.658285 0.000000 0.000000 -0.000000 0.000000 0.000000 8.520406 0.000000 0.000000 1.905762 0.000000 -0.000000 -4.658285 0.000000 0.000000 -0.000000 0.000000
-58.966681 43.806178 19.048479 173.753427 -27.057229 -0.202143 -0.171292 16.141536 2.144008 -0.069478 1.561014 0.257465 -0.112546 2.615054 0.430368 -0.378287 14.078707 2.294071 -4.729456 18.750244 -5.312280 -3.871869 -5.745993 -4.633992 3.752567 -3.645133 -21.360305 -14.470816 -17.212689 -45.824400 -130.698177 -48.090838 159.088946 -8.076563 5.046098 1.650596 -2.457874 -6.253044 7.893276 30.081192 -14.095817 29.793314 123.062169 -43.490779 -162.047410 19.557852 6.408627 -1.005392 -1.829702 -64.376047 9.909286 -145.498307 65.553505 -143.142009 -9.059896 -26.513888 6.941271 0.339464 -0.670235 0.093854 3.308876 -52.472470 -1.236716 173.611293 61.215127 174.456957 1.098883 -39.359881 0.490308 0.035532 0.505094 0.120686
-58.972620 43.806374 19.074299 173.695295 -27.167035 -0.207007 -0.108851 16.097680 2.146130 -0.071442 1.564242 0.255877 -0.115809 2.620290 0.427646 -0.397244 14.092723 2.275068 -4.678262 18.854317 -5.258179 -3.804057 -5.686218 -4.556027 3.694777 -3.543578 -21.129848 -14.551842 -17.459795 -45.821030 -129.702839 -47.960462 158.948056 -7.870942 5.593492 3.735547 -2.228928 -6.043955 7.695244 29.768098 -13.811091 29.982010 123.554717 -43.643254 -162.691900 19.127635 6.881136 -1.475825 -1.985240 -64.288219 10.093946 -145.382932 65.579591 -143.082930 -9.047728 -26.405809 6.911759 0.359289 -0.708273 0.102137 3.322615 -52.371725 -1.189404 173.600059 61.230605 174.446394 1.120689 -39.340138 0.444447 0.027143 0.513234 0.145049
-58.985218 43.806296 19.106272 173.697010 -27.280894 -0.212543 -0.123186 16.057196 2.121223 -0.073677 1.570295 0.255078 -0.119457 2.630034 0.426158 -0.417005 14.117340 2.260545 -4.620071 18.945641 -5.218947 -3.774081 -5.641596 -4.526257 3.703865 -3.385732 -20.871619 -14.667969 -17.636512 -45.815784 -128.714412 -47.741008 158.797393 -7.588637 6.097555 6.169384 -2.033573 -5.806960 7.477629 29.489400 -13.504582 30.100242 123.958035 -43.796985 -163.321698 18.546292 7.413823 -2.258850 -2.122693 -64.194018 10.197491 -145.298652 65.603986 -143.048105 -9.040033 -26.319782 6.883102 0.377128 -0.725625 0.126381 3.361747 -52.286645 -1.234734 173.616397 61.261997 174.480331 1.181811 -39.270377 0.418526 0.021290 0.506653 0.147947
-58.996142 43.810245 19.136043 173.710174 -27.450246 -0.237713 -0.156814 16.071830 2.112641 -0.075841 1.578677 0.254873 -0.122979 2.643517 0.425712 -0.434969 14.150694 2.249911 -4.527654 18.992195 -5.141221 -3.763978 -5.564839 -4.543946 3.761579 -3.174922 -20.598148 -14.786258 -17.757493 -45.822898 -127.801633 -47.463903 158.640419 -7.221314 6.552574 9.009930 -1.870394 -5.559578 7.244955 29.259763 -13.187516 30.154374 124.269694 -43.951847 -163.933743 17.837244 7.993901 -3.428966 -2.222176 -64.033770 10.270645 -145.228922 65.627437 -142.998847 -9.040442 -26.265798 6.868128 0.394656 -0.727742 0.140525 3.440575 -52.147290 -1.324352 173.548720 61.283492 174.484538 1.263970 -39.189353 0.370769 0.012857 0.486183 0.129270
-59.008846 43.819412 19.159455 173.727419 -27.689593 -0.251895 -0.204121 16.156630 2.092316 -0.077220 1.588686 0.255009 -0.125318 2.659574 0.425841 -0.445666 14.190028 2.241972 -4.458922 19.067181 -5.089268 -3.647237 -5.428188 -4.467627 3.835251 -2.944632 -20.324773 -14.895622 -17.859959 -45.827928 -127.017876 -47.176902 158.499377 -6.757707 6.932593 12.324171 -1.744898 -5.312939 7.007844 29.096556 -12.868628 30.149210 124.526095 -44.092092 -164.557388 17.023575 8.585851 -5.033018 -2.284600 -63.801978 10.299860 -145.207898 65.637638 -143.001481 -9.029824 -26.231168 6.868728 0.392194 -0.741705 0.135467 3.434571 -51.920414 -1.334799 173.584115 61.313969 174.522350 1.364149 -39.133513 0.250005 -0.003954 0.477251 0.184996
-59.024683 43.824385 19.192453 173.654084 -27.882259 -0.208713 -0.172596 16.196718 2.059308 -0.077368 1.599982 0.255542 -0.125621 2.677705 0.426606 -0.444575 14.234152 2.237832 -4.417183 19.145809 -5.060627 -3.572721 -5.318111 -4.420652 3.893975 -2.726024 -20.067916 -15.005942 -17.998631 -45.802028 -126.416525 -46.908817 158.396998 -6.159623 7.184387 16.115007 -1.671167 -5.074751 6.768391 29.023242 -12.569058 30.101456 124.753271 -44.183030 -165.192150 16.094189 9.127263 -7.091128 -2.346132 -63.640837 10.364346 -145.158705 65.659319 -143.018453 -8.989769 -26.144907 6.881305 0.382353 -0.775423 0.092156 3.532260 -51.734762 -1.375049 173.578313 61.342748 174.523216 1.426734 -39.084384 0.159864 -0.002029 0.470162 0.219091
-59.024380 43.822254 19.240391 173.549895 -27.999614 -0.249052 -0.077168 16.167110 2.131867 -0.076424 1.612440 0.256509 -0.123946 2.697687 0.428103 -0.432414 14.282397 2.237893 -4.379665 19.227950 -5.029315 -3.539635 -5.228223 -4.395510 3.928151 -2.544736 -19.838011 -15.125885 -18.212908 -45.728497 -126.011788 -46.663311 158.327304 -5.381194 7.223073 20.309081 -1.649353 -4.853909 6.523846 29.052637 -12.320680 30.036253 125.009981 -44.199072 -165.828821 15.064292 9.539101 -9.533007 -2.461613 -63.531115 10.577307 -145.004202 65.736563 -142.855901 -9.017832 -26.098506 6.864569 0.406075 -0.724616 0.105734 3.578702 -51.651865 -1.293554 173.635243 61.364576 174.611210 1.540220 -39.032116 0.109227 0.032587 0.476003 0.152772
